<?xml version="1.0" encoding="UTF-8" standalone="no"?>
<svg
   viewBox="0 0 24 24"
   width="24"
   height="24"
   version="1.1"
   id="svg5127"
   sodipodi:docname="edit-find-replace_state1.svg"
   inkscape:version="1.2.1 (9c6d41e410, 2022-07-14, custom)"
   xmlns:inkscape="http://www.inkscape.org/namespaces/inkscape"
   xmlns:sodipodi="http://sodipodi.sourceforge.net/DTD/sodipodi-0.dtd"
   xmlns="http://www.w3.org/2000/svg"
   xmlns:svg="http://www.w3.org/2000/svg">
  <sodipodi:namedview
     id="namedview5129"
     pagecolor="#ffffff"
     bordercolor="#666666"
     borderopacity="1.0"
     inkscape:showpageshadow="2"
     inkscape:pageopacity="0.0"
     inkscape:pagecheckerboard="0"
     inkscape:deskcolor="#d1d1d1"
     showgrid="false"
     inkscape:zoom="36.291667"
     inkscape:cx="2.7141217"
     inkscape:cy="12.013777"
     inkscape:window-width="2520"
     inkscape:window-height="1411"
     inkscape:window-x="0"
     inkscape:window-y="0"
     inkscape:window-maximized="1"
     inkscape:current-layer="g5125" />
  <defs
     id="defs3051">
    <style
       type="text/css"
       id="current-color-scheme">
      .ColorScheme-Text {
        color:#eff0f1;
      }
      </style>
  </defs>
  <g
     transform="translate(1,1)"
     id="g5125">
    <path
       style="fill:#efeff1;fill-opacity:0.50196081;stroke:none"
       d="m 12,17 c -0.553995,0 -1,0.446005 -1,1 0,0.553995 0.446005,1 1,1 0.553995,0 1,-0.446005 1,-1 0,-0.553995 -0.446005,-1 -1,-1 z"
       id="path5628" />
    <path
       style="fill:#efeff1;fill-opacity:0.50196081;stroke:none"
       d="m 8,17 c -0.5539952,0 -1,0.446005 -1,1 0,0.553995 0.4460048,1 1,1 0.5539952,0 1,-0.446005 1,-1 0,-0.553995 -0.4460048,-1 -1,-1 z"
       id="path5626" />
    <path
       style="fill:#eff0f1;fill-opacity:1;stroke:none"
       d="m 4,17 c -0.5539952,0 -1,0.446005 -1,1 0,0.553995 0.4460048,1 1,1 0.5539952,0 1,-0.446005 1,-1 0,-0.553995 -0.4460048,-1 -1,-1 z"
       id="path5624" />
    <path
       style="fill:#eff0f1;fill-opacity:1;stroke:none"
       d="M 9,3 C 5.6759952,3 3,5.6759952 3,9 c 0,3.324005 2.6759952,6 6,6 1.481205,0 2.830584,-0.534682 3.875,-1.417969 L 18.292969,19 19,18.292969 13.582031,12.875 C 14.465318,11.830584 15,10.481205 15,9 15,5.6759952 12.324005,3 9,3 Z m 0,1 c 2.770005,0 5,2.2299952 5,5 0,2.770005 -2.229995,5 -5,5 C 6.2299952,14 4,11.770005 4,9 4,6.2299952 6.2299952,4 9,4 Z"
       id="path5123" />
  </g>
</svg>
