<?xml version="1.0" encoding="UTF-8" standalone="no"?>
<svg
   viewBox="0 0 24 24"
   width="24"
   height="24"
   version="1.1"
   id="svg907"
   sodipodi:docname="network_scan_inactive.svg"
   inkscape:version="1.2.1 (9c6d41e410, 2022-07-14)"
   xmlns:inkscape="http://www.inkscape.org/namespaces/inkscape"
   xmlns:sodipodi="http://sodipodi.sourceforge.net/DTD/sodipodi-0.dtd"
   xmlns="http://www.w3.org/2000/svg"
   xmlns:svg="http://www.w3.org/2000/svg">
  <defs
     id="defs911" />
  <sodipodi:namedview
     id="namedview909"
     pagecolor="#ffffff"
     bordercolor="#666666"
     borderopacity="1.0"
     inkscape:showpageshadow="2"
     inkscape:pageopacity="0.0"
     inkscape:pagecheckerboard="0"
     inkscape:deskcolor="#d1d1d1"
     showgrid="false"
     inkscape:zoom="64"
     inkscape:cx="6.5859375"
     inkscape:cy="14.007812"
     inkscape:window-width="2520"
     inkscape:window-height="1411"
     inkscape:window-x="0"
     inkscape:window-y="0"
     inkscape:window-maximized="1"
     inkscape:current-layer="g903" />
  <style
     type="text/css"
     id="current-color-scheme">
        .ColorScheme-Text {
            color:#eff0f1;
        }
    </style>
  <g
     transform="translate(1,1)"
     id="g905">
    <g
       class="ColorScheme-Text"
       fill="currentColor"
       fill-rule="evenodd"
       id="g903"
       style="opacity:0.5">
      <path
         d="m11 3c-4.433594 0-8 3.566406-8 8 0 1.960938.699219 3.75 1.863281 5.140625l.710938-.710937c-.984375-1.207032-1.574219-2.746094-1.574219-4.429688 0-3.878906 3.121094-7 7-7s7 3.121094 7 7c0 1.683594-.589844 3.222656-1.574219 4.429688l.714844.710937c1.160156-1.390625 1.859375-3.179687 1.859375-5.140625 0-4.433594-3.566406-8-8-8zm0 3c-2.769531 0-5 2.230469-5 5 0 1.128906.382812 2.15625 1.007812 2.992188l.710938-.707032c-.453125-.648437-.71875-1.433594-.71875-2.285156 0-2.214844 1.785156-4 4-4s4 1.785156 4 4c0 .851562-.265625 1.636719-.71875 2.285156l.710938.707032c.625-.835938 1.007812-1.863282 1.007812-2.992188 0-2.769531-2.230469-5-5-5z"
         id="path897" />
      <path
         id="path899"
         d="M 11 9 C 9.8906261 9 9 9.8906261 9 11 C 9 11.744282 9.4011349 12.389909 10 12.734375 L 10 19 L 12 19 L 12 12.734375 C 12.598865 12.389909 13 11.744282 13 11 C 13 9.8906261 12.109374 9 11 9 z M 11 10 C 11.554687 10 12 10.445313 12 11 C 12 11.554687 11.554687 12 11 12 C 10.445313 12 10 11.554687 10 11 C 10 10.445313 10.445313 10 11 10 z " />
    </g>
  </g>
</svg>
