<?xml version="1.0" encoding="UTF-8" standalone="no"?>
<svg
   viewBox="0 0 24 24"
   height="24"
   width="24"
   version="1.1"
   id="svg4153"
   sodipodi:docname="network-wireless.svg"
   inkscape:version="1.1.2 (0a00cf5339, 2022-02-04, custom)"
   xmlns:inkscape="http://www.inkscape.org/namespaces/inkscape"
   xmlns:sodipodi="http://sodipodi.sourceforge.net/DTD/sodipodi-0.dtd"
   xmlns="http://www.w3.org/2000/svg"
   xmlns:svg="http://www.w3.org/2000/svg"
   xmlns:rdf="http://www.w3.org/1999/02/22-rdf-syntax-ns#"
   xmlns:cc="http://creativecommons.org/ns#"
   xmlns:dc="http://purl.org/dc/elements/1.1/">
  <sodipodi:namedview
     pagecolor="#505050"
     bordercolor="#666666"
     borderopacity="1"
     objecttolerance="10"
     gridtolerance="10"
     guidetolerance="10"
     inkscape:pageopacity="0"
     inkscape:pageshadow="2"
     inkscape:window-width="1260"
     inkscape:window-height="1411"
     id="namedview748"
     showgrid="false"
     showguides="false"
     inkscape:guide-bbox="true"
     inkscape:zoom="22.627417"
     inkscape:cx="15.909903"
     inkscape:cy="11.247417"
     inkscape:window-x="0"
     inkscape:window-y="0"
     inkscape:window-maximized="0"
     inkscape:current-layer="network-wireless-100"
     inkscape:pagecheckerboard="0"
     fit-margin-top="0"
     fit-margin-left="0"
     fit-margin-right="0"
     fit-margin-bottom="0"
     lock-margins="true">
    <inkscape:grid
       type="xygrid"
       id="grid1738"
       originx="22"
       originy="-22" />
  </sodipodi:namedview>
  <metadata
     id="metadata4159">
    <rdf:RDF>
      <cc:Work
         rdf:about="">
        <dc:format>image/svg+xml</dc:format>
        <dc:type
           rdf:resource="http://purl.org/dc/dcmitype/StillImage" />
      </cc:Work>
    </rdf:RDF>
  </metadata>
  <defs
     id="defs4157">
    <style
       id="current-color-scheme"
       type="text/css">
      .ColorScheme-Text {
        color:#31363b;
      }
      .ColorScheme-Background {
        color:#eff0f1;
      }
      .ColorScheme-Highlight {
        color:#3498db;
      }
      .ColorScheme-ViewText {
        color:#31363b;
      }
      .ColorScheme-ViewBackground {
        color:#fcfcfc;
      }
      .ColorScheme-ViewHover {
        color:#93cee9;
      }
      .ColorScheme-ViewFocus{
        color:#3daee9;
      }
      .ColorScheme-ButtonText {
        color:#31363b;
      }
      .ColorScheme-ButtonBackground {
        color:#eff0f1;
      }
      .ColorScheme-ButtonHover {
        color:#93cee9;
      }
      .ColorScheme-ButtonFocus{
        color:#3daee9;
      }
      .ColorScheme-NegativeText{
        color:#e74c3c;
      }
      </style>
  </defs>
  <g
     id="network-wireless-100"
     transform="translate(23.00019,-21)">
    <path
       style="opacity:1;fill:#eff0f1;fill-opacity:1;stroke:none"
       d="m -11,25 c -4.155,0 -7.90594,1.67156 -10.61719,4.38281 l 0.70899,0.70899 C -18.3777,27.5613 -14.878,26 -11,26 c 3.878,0 7.3777,1.5613 9.9082,4.0918 l 0.70899,-0.70899 C -3.09406,26.67156 -6.845,25 -11,25 Z"
       id="rect4152"
       class="ColorScheme-Text" />
    <path
       style="opacity:1;fill:#eff0f1;fill-opacity:1;stroke:none"
       d="m -11,29 c -3.047,0 -5.79691,1.22659 -7.78516,3.21484 l 0.70704,0.70704 C -16.27062,31.11437 -13.77,30 -11,30 c 2.77,0 5.27062,1.11437 7.07813,2.92188 l 0.70703,-0.70704 C -5.20309,30.22659 -7.953,29 -11,29 Z"
       id="rect4204"
       class="ColorScheme-Text" />
    <path
       style="opacity:1;fill:#eff0f1;fill-opacity:1;stroke:none"
       d="m -11,33 c -1.939,0 -3.68983,0.77967 -4.95508,2.04492 l 0.70899,0.70899 C -14.16159,34.66941 -12.662,34 -11,34 c 1.662,0 3.16159,0.66941 4.24609,1.75391 l 0.70899,-0.70899 C -7.31017,33.77967 -9.061,33 -11,33 Z"
       id="rect4208"
       class="ColorScheme-Text" />
    <path
       style="opacity:1;fill:#eff0f1;fill-opacity:1;stroke:none"
       d="m -11,37 c -1.107996,0 -2,0.892004 -2,2 0,1.107996 0.892004,2 2,2 1.107996,0 2,-0.892004 2,-2 0,-1.107996 -0.892004,-2 -2,-2 z m 0,1 c 0.554,0 1,0.446 1,1 0,0.554 -0.446,1 -1,1 -0.554,0 -1,-0.446 -1,-1 0,-0.554 0.446,-1 1,-1 z"
       id="rect4155"
       class="ColorScheme-Text" />
  </g>
</svg>
