<?xml version="1.0" encoding="UTF-8" standalone="no"?>
<svg
   viewBox="0 0 24 24"
   height="24"
   width="24"
   version="1.1"
   id="svg4153"
   sodipodi:docname="network-wireless-available.svg"
   inkscape:version="1.1.2 (0a00cf5339, 2022-02-04, custom)"
   xmlns:inkscape="http://www.inkscape.org/namespaces/inkscape"
   xmlns:sodipodi="http://sodipodi.sourceforge.net/DTD/sodipodi-0.dtd"
   xmlns="http://www.w3.org/2000/svg"
   xmlns:svg="http://www.w3.org/2000/svg"
   xmlns:rdf="http://www.w3.org/1999/02/22-rdf-syntax-ns#"
   xmlns:cc="http://creativecommons.org/ns#"
   xmlns:dc="http://purl.org/dc/elements/1.1/">
  <sodipodi:namedview
     pagecolor="#ffffff"
     bordercolor="#666666"
     borderopacity="1"
     objecttolerance="10"
     gridtolerance="10"
     guidetolerance="10"
     inkscape:pageopacity="0"
     inkscape:pageshadow="2"
     inkscape:window-width="1260"
     inkscape:window-height="1411"
     id="namedview748"
     showgrid="false"
     showguides="true"
     inkscape:guide-bbox="true"
     inkscape:zoom="16"
     inkscape:cx="26.5"
     inkscape:cy="0.59375"
     inkscape:window-x="0"
     inkscape:window-y="0"
     inkscape:window-maximized="0"
     inkscape:current-layer="g4527"
     inkscape:pagecheckerboard="0"
     fit-margin-top="0"
     fit-margin-left="0"
     fit-margin-right="0"
     fit-margin-bottom="0">
    <inkscape:grid
       type="xygrid"
       id="grid1738"
       originx="65.617191"
       originy="-25" />
  </sodipodi:namedview>
  <metadata
     id="metadata4159">
    <rdf:RDF>
      <cc:Work
         rdf:about="">
        <dc:format>image/svg+xml</dc:format>
        <dc:type
           rdf:resource="http://purl.org/dc/dcmitype/StillImage" />
      </cc:Work>
    </rdf:RDF>
  </metadata>
  <defs
     id="defs4157">
    <style
       id="current-color-scheme"
       type="text/css">
      .ColorScheme-Text {
        color:#31363b;
      }
      .ColorScheme-Background {
        color:#eff0f1;
      }
      .ColorScheme-Highlight {
        color:#3498db;
      }
      .ColorScheme-ViewText {
        color:#31363b;
      }
      .ColorScheme-ViewBackground {
        color:#fcfcfc;
      }
      .ColorScheme-ViewHover {
        color:#93cee9;
      }
      .ColorScheme-ViewFocus{
        color:#3daee9;
      }
      .ColorScheme-ButtonText {
        color:#31363b;
      }
      .ColorScheme-ButtonBackground {
        color:#eff0f1;
      }
      .ColorScheme-ButtonHover {
        color:#93cee9;
      }
      .ColorScheme-ButtonFocus{
        color:#3daee9;
      }
      .ColorScheme-NegativeText{
        color:#e74c3c;
      }
      </style>
  </defs>
  <g
     transform="translate(21.61719,-25)"
     id="network-wireless-available">
    <g
       transform="translate(-50.59166,16.97765)"
       id="g4527">
      <path
         class="ColorScheme-Text"
         style="opacity:1;fill:#eff0f1;fill-opacity:1;stroke:none"
         d="m 40.97466,12.02235 c -4.155,0 -7.90594,1.67156 -10.61719,4.38281 l 0.70899,0.70899 c 2.5305,-2.5305 6.0302,-4.0918 9.9082,-4.0918 3.878,0 7.3777,1.5613 9.9082,4.0918 l 0.70899,-0.70899 C 48.8806,13.69391 45.12966,12.02235 40.97466,12.02235 Z"
         id="path4519" />
      <path
         class="ColorScheme-Text"
         style="opacity:1;fill:#eff0f1;fill-opacity:1;stroke:none"
         d="m 40.97466,16.02235 c -3.047,0 -5.79691,1.22659 -7.78516,3.21484 l 0.70704,0.70704 c 1.8075,-1.80751 4.30812,-2.92188 7.07812,-2.92188 2.77,0 5.27062,1.11437 7.07813,2.92188 l 0.70703,-0.70704 c -1.98825,-1.98825 -4.73816,-3.21484 -7.78516,-3.21484 z"
         id="path4521" />
      <path
         class="ColorScheme-Text"
         style="opacity:1;fill:#eff0f1;fill-opacity:1;stroke:none"
         d="m 40.97466,20.02235 c -1.939,0 -3.68983,0.77967 -4.95508,2.04492 l 0.70899,0.70899 c 1.0845,-1.0845 2.58409,-1.75391 4.24609,-1.75391 1.662,0 3.16159,0.66941 4.24609,1.75391 l 0.70899,-0.70899 c -1.26525,-1.26525 -3.01608,-2.04492 -4.95508,-2.04492 z"
         id="path4523" />
      <path
         class="ColorScheme-Text"
         style="opacity:1;fill:#eff0f1;fill-opacity:1;stroke:none"
         d="m 40.97466,24.02235 c -1.107996,0 -2,0.892004 -2,2 0,1.107996 0.892004,2 2,2 1.107996,0 2,-0.892004 2,-2 0,-1.107996 -0.892004,-2 -2,-2 z m 0,1 c 0.554,0 1,0.446 1,1 0,0.554 -0.446,1 -1,1 -0.554,0 -1,-0.446 -1,-1 0,-0.554 0.446,-1 1,-1 z"
         id="path4525" />
    </g>
    <path
       id="path4891"
       d="m -3.2343755,35.013676 a 2,2 0 0 0 -1.767578,1.896484 2,2 0 0 0 0,0.08984 h 1 a 1,1 0 0 1 0.882812,-0.994141 h 0.115235 v -0.992187 h -0.230469 z m 0.232422,0.002 v 1 a 1,1 0 0 1 0.994141,0.882813 v 0.115234 h 0.0059 a 1,1 0 0 1 -0.882813,0.99414 l -0.115275,-4.7e-5 v -0.0078 a 2,2 0 0 0 -0.199219,0.002 2,2 0 0 0 -0.800781,0.218703 v -0.207031 h -0.002 v 2 h 1 v -1.013672 h 0.002 0.230469 a 2,2 0 0 0 1.767578,-1.896484 2,2 0 0 0 0,-0.08984 h -0.01367 v -0.230469 a 2,2 0 0 0 -1.896484,-1.767578 2,2 0 0 0 -0.08984,0 z m -0.998047,5.984328 v 1 h 1 v -1 z"
       style="fill:#fdbc4b;fill-opacity:1;stroke:none" />
  </g>
  <rect
     style="opacity:0.2;fill:none;fill-opacity:1;stroke:none;stroke-width:3.56737px;stroke-linecap:butt;stroke-linejoin:miter;stroke-miterlimit:4;stroke-dasharray:none;stroke-dashoffset:0;stroke-opacity:1"
     id="rect1603"
     width="22"
     height="22"
     x="224.23363"
     y="10.040146" />
</svg>
