<?xml version="1.0" encoding="UTF-8" standalone="no"?>
<svg
   viewBox="0 0 24 24"
   height="24"
   width="24"
   version="1.1"
   id="svg4153"
   sodipodi:docname="network-wireless-100-locked.svg"
   inkscape:version="1.1.2 (0a00cf5339, 2022-02-04, custom)"
   xmlns:inkscape="http://www.inkscape.org/namespaces/inkscape"
   xmlns:sodipodi="http://sodipodi.sourceforge.net/DTD/sodipodi-0.dtd"
   xmlns:xlink="http://www.w3.org/1999/xlink"
   xmlns="http://www.w3.org/2000/svg"
   xmlns:svg="http://www.w3.org/2000/svg"
   xmlns:rdf="http://www.w3.org/1999/02/22-rdf-syntax-ns#"
   xmlns:cc="http://creativecommons.org/ns#"
   xmlns:dc="http://purl.org/dc/elements/1.1/">
  <sodipodi:namedview
     pagecolor="#505050"
     bordercolor="#666666"
     borderopacity="1"
     objecttolerance="10"
     gridtolerance="10"
     guidetolerance="10"
     inkscape:pageopacity="0"
     inkscape:pageshadow="2"
     inkscape:window-width="1260"
     inkscape:window-height="1411"
     id="namedview748"
     showgrid="false"
     showguides="true"
     inkscape:guide-bbox="true"
     inkscape:zoom="32"
     inkscape:cx="13.484375"
     inkscape:cy="17.171875"
     inkscape:window-x="0"
     inkscape:window-y="0"
     inkscape:window-maximized="0"
     inkscape:current-layer="svg4153"
     inkscape:pagecheckerboard="0"
     fit-margin-top="0.5"
     fit-margin-left="0.5"
     fit-margin-right="0.5"
     fit-margin-bottom="0.5">
    <inkscape:grid
       type="xygrid"
       id="grid1738"
       originx="0.402913"
       originy="-0.213943" />
    <sodipodi:guide
       position="2.8873527,3.4939033"
       orientation="0,-1"
       id="guide2297" />
    <sodipodi:guide
       position="22.041844,11.161593"
       orientation="1,0"
       id="guide2299" />
    <sodipodi:guide
       position="22.395398,10.852233"
       orientation="1,0"
       id="guide2301" />
  </sodipodi:namedview>
  <metadata
     id="metadata4159">
    <rdf:RDF>
      <cc:Work
         rdf:about="">
        <dc:format>image/svg+xml</dc:format>
        <dc:type
           rdf:resource="http://purl.org/dc/dcmitype/StillImage" />
      </cc:Work>
    </rdf:RDF>
  </metadata>
  <defs
     id="defs4157">
    <linearGradient
       id="linearGradient1667"
       inkscape:swatch="solid">
      <stop
         style="stop-color:#eeffff;stop-opacity:0;"
         offset="0"
         id="stop1665" />
    </linearGradient>
    <style
       id="current-color-scheme"
       type="text/css">
      .ColorScheme-Text {
        color:#31363b;
      }
      .ColorScheme-Background {
        color:#eff0f1;
      }
      .ColorScheme-Highlight {
        color:#3498db;
      }
      .ColorScheme-ViewText {
        color:#31363b;
      }
      .ColorScheme-ViewBackground {
        color:#fcfcfc;
      }
      .ColorScheme-ViewHover {
        color:#93cee9;
      }
      .ColorScheme-ViewFocus{
        color:#3daee9;
      }
      .ColorScheme-ButtonText {
        color:#31363b;
      }
      .ColorScheme-ButtonBackground {
        color:#eff0f1;
      }
      .ColorScheme-ButtonHover {
        color:#93cee9;
      }
      .ColorScheme-ButtonFocus{
        color:#3daee9;
      }
      .ColorScheme-NegativeText{
        color:#e74c3c;
      }
      </style>
    <linearGradient
       inkscape:collect="always"
       xlink:href="#linearGradient1667"
       id="linearGradient1669"
       x1="-22"
       y1="55"
       x2="0"
       y2="55"
       gradientUnits="userSpaceOnUse" />
    <linearGradient
       inkscape:collect="always"
       xlink:href="#linearGradient1667"
       id="linearGradient1900"
       gradientUnits="userSpaceOnUse"
       x1="-22"
       y1="55"
       x2="0"
       y2="55" />
    <linearGradient
       inkscape:collect="always"
       xlink:href="#linearGradient1667"
       id="linearGradient1902"
       gradientUnits="userSpaceOnUse"
       x1="-22"
       y1="55"
       x2="0"
       y2="55" />
    <linearGradient
       inkscape:collect="always"
       xlink:href="#linearGradient1667"
       id="linearGradient1904"
       gradientUnits="userSpaceOnUse"
       x1="-22"
       y1="55"
       x2="0"
       y2="55" />
    <linearGradient
       inkscape:collect="always"
       xlink:href="#linearGradient1667"
       id="linearGradient1906"
       gradientUnits="userSpaceOnUse"
       x1="-22"
       y1="55"
       x2="0"
       y2="55" />
    <linearGradient
       inkscape:collect="always"
       xlink:href="#linearGradient1667"
       id="linearGradient1908"
       gradientUnits="userSpaceOnUse"
       x1="-22"
       y1="55"
       x2="0"
       y2="55" />
  </defs>
  <g
     transform="matrix(0.94117647,0,0,0.94117647,22.394103,-39.764706)"
     id="network-wireless-100-locked"
     inkscape:export-filename="/home/troytjh/.local/share/plasma/desktoptheme/tmp/icons/network-wireless-100-locked.svg"
     inkscape:export-xdpi="344.06"
     inkscape:export-ydpi="344.06"
     style="fill:#000000;fill-opacity:1;stroke:url(#linearGradient1669)">
    <path
       id="path4322"
       d="m -11,47 c -4.155,0 -7.90594,1.67156 -10.61719,4.38281 l 0.70899,0.70899 C -18.3777,49.5613 -14.878,48 -11,48 c 3.878,0 7.3777,1.5613 9.9082,4.0918 l 0.70899,-0.70899 C -3.09406,48.67156 -6.845,47 -11,47 Z"
       style="opacity:1;fill:#eff0f1;fill-opacity:1;stroke:url(#linearGradient1900)"
       class="ColorScheme-Text" />
    <path
       id="path4324"
       d="m -11,51 c -3.047,0 -5.79691,1.22659 -7.78516,3.21484 l 0.70704,0.70704 C -16.27062,53.11437 -13.77,52 -11,52 c 2.77,0 5.27062,1.11437 7.07813,2.92188 l 0.70703,-0.70704 C -5.20309,52.22659 -7.953,51 -11,51 Z"
       style="opacity:1;fill:#eff0f1;fill-opacity:1;stroke:url(#linearGradient1902)"
       class="ColorScheme-Text" />
    <path
       id="path4326"
       d="m -11,55 c -1.939,0 -3.68983,0.77967 -4.95508,2.04492 l 0.70899,0.70899 C -14.16159,56.66941 -12.662,56 -11,56 c 1.662,0 3.16159,0.66941 4.24609,1.75391 l 0.70899,-0.70899 C -7.31017,55.77967 -9.061,55 -11,55 Z"
       style="opacity:1;fill:#eff0f1;fill-opacity:1;stroke:url(#linearGradient1904)"
       class="ColorScheme-Text" />
    <path
       id="path4328"
       d="m -11,59 c -1.107996,0 -2,0.892004 -2,2 0,1.107996 0.892004,2 2,2 1.107996,0 2,-0.892004 2,-2 0,-1.107996 -0.892004,-2 -2,-2 z m 0,1 c 0.554,0 1,0.446 1,1 0,0.554 -0.446,1 -1,1 -0.554,0 -1,-0.446 -1,-1 0,-0.554 0.446,-1 1,-1 z"
       style="opacity:1;fill:#eff0f1;fill-opacity:1;stroke:url(#linearGradient1906)"
       class="ColorScheme-Text" />
    <path
       class="ColorScheme-Text"
       id="path4340"
       transform="translate(0,-20)"
       d="m -3,76 c -1.108,0 -2,0.892 -2,2 v 2 h -1 v 3 h 6 v -3 h -1 v -2 c 0,-1.108 -0.892,-2 -2,-2 z m 0,1 c 0.554,0 1,0.446 1,1 v 2 h -2 v -2 c 0,-0.554 0.446,-1 1,-1 z"
       style="opacity:1;fill:#eff0f1;fill-opacity:1;stroke:url(#linearGradient1908)" />
  </g>
  <rect
     style="opacity:0.2;fill:none;fill-opacity:1;stroke:none;stroke-width:3.56737px;stroke-linecap:butt;stroke-linejoin:miter;stroke-miterlimit:4;stroke-dasharray:none;stroke-dashoffset:0;stroke-opacity:1"
     id="rect1603"
     width="22"
     height="22"
     x="159.01935"
     y="34.826202" />
</svg>
