<?xml version="1.0" encoding="UTF-8" standalone="no"?>
<svg
   version="1.0"
   width="820.000000pt"
   height="756.000000pt"
   viewBox="0 0 820.000000 756.000000"
   preserveAspectRatio="xMidYMid meet"
   id="svg10"
   sodipodi:docname="rubber_ducky.svg"
   inkscape:version="1.2.1 (9c6d41e410, 2022-07-14)"
   xmlns:inkscape="http://www.inkscape.org/namespaces/inkscape"
   xmlns:sodipodi="http://sodipodi.sourceforge.net/DTD/sodipodi-0.dtd"
   xmlns="http://www.w3.org/2000/svg"
   xmlns:svg="http://www.w3.org/2000/svg">
  <defs
     id="defs14" />
  <sodipodi:namedview
     id="namedview12"
     pagecolor="#ffffff"
     bordercolor="#666666"
     borderopacity="1.0"
     inkscape:showpageshadow="2"
     inkscape:pageopacity="0.0"
     inkscape:pagecheckerboard="0"
     inkscape:deskcolor="#d1d1d1"
     inkscape:document-units="pt"
     showgrid="false"
     inkscape:zoom="0.36855159"
     inkscape:cx="1427.2086"
     inkscape:cy="1097.5397"
     inkscape:window-width="2520"
     inkscape:window-height="1411"
     inkscape:window-x="0"
     inkscape:window-y="0"
     inkscape:window-maximized="1"
     inkscape:current-layer="g8" />
  <metadata
     id="metadata2">
Created by potrace 1.16, written by Peter Selinger 2001-2019
</metadata>
  <g
     transform="translate(0.000000,756.000000) scale(0.100000,-0.100000)"
     fill="#000000"
     stroke="none"
     id="g8">
    <path
       d="M2975 7554 c-110 -12 -268 -37 -340 -55 -312 -77 -615 -228 -870 -432 -156 -125 -359 -344 -463 -499 -28 -41 -42 -50 -109 -76 -243 -93 -500 -127 -705 -92 -112 18 -250 10 -313 -20 -146 -70 -205 -225 -156 -405 40 -144 135 -301 296 -484 257 -295 617 -475 1024 -511 l106 -10 51 -54 c29 -30 65 -81 80 -113 25 -49 29 -70 29 -138 0 -69 -4 -88 -30 -140 -42 -84 -172 -211 -320 -312 -778 -533 -1034 -1482 -650 -2409 111 -267 310 -594 476 -780 205 -230 506 -429 895 -593 1100 -462 2809 -563 4069 -241 504 129 873 301 1170 545 343 281 627 650 784 1017 213 496 251 996 131 1695 -62 361 -137 623 -274 962 -206 507 -430 835 -645 943 -59 29 -75 33 -151 33 -107 0 -162 -25 -275 -125 -336 -299 -662 -460 -1476 -730 -308 -102 -485 -151 -652 -180 -184 -31 -339 -24 -354 17 -10 27 52 134 132 228 105 124 144 185 235 370 120 243 206 517 247 785 27 176 25 471 -5 617 -59 296 -165 499 -361 694 -120 119 -242 205 -396 279 -186 89 -443 163 -685 196 -105 15 -419 26 -495 18z m535 -323 c668 -121 1025 -420 1115 -935 20 -115 20 -369 0 -501 -35 -230 -109 -471 -210 -681 -73 -153 -130 -243 -210 -334 -216 -244 -260 -475 -117 -623 79 -82 189 -117 369 -117 288 0 582 77 1378 360 136 48 377 151 524 223 198 98 391 223 557 363 81 68 132 104 147 104 141 0 461 -562 646 -1133 94 -290 172 -721 191 -1050 31 -562 -109 -1048 -425 -1472 -210 -283 -473 -522 -733 -666 -408 -227 -990 -379 -1702 -446 -274 -25 -969 -25 -1250 0 -1027 94 -1837 352 -2320 740 -159 128 -272 268 -422 519 -406 685 -432 1383 -73 1939 116 180 256 320 465 464 246 170 373 316 437 504 56 163 27 356 -79 518 -26 40 -48 76 -48 78 0 3 18 28 40 57 56 75 80 152 80 261 0 157 -61 298 -227 529 -98 136 -122 197 -130 333 l-5 90 83 108 c327 431 779 703 1299 783 129 20 474 12 620 -15z m-2286 -1073 c41 -189 59 -229 169 -383 48 -66 108 -162 134 -213 40 -78 47 -102 48 -151 0 -47 -5 -65 -29 -101 l-28 -43 -112 6 c-331 17 -639 158 -848 388 -184 203 -305 432 -242 456 10 3 71 -1 138 -10 138 -20 252 -21 381 -7 89 11 281 51 326 69 40 16 58 13 63 -11z"
       id="path4"
       style="fill:#eff0f1;fill-opacity:1" />
    <path
       d="M2465 6441 c-102 -47 -154 -154 -125 -260 18 -66 92 -135 162 -151 147 -33 282 88 265 238 -16 139 -176 231 -302 173z"
       id="path6"
       style="fill:#eff0f1;fill-opacity:1" />
  </g>
</svg>
